<svg width="20" height="20" viewBox="0 0 20 20" fill="none" xmlns="http://www.w3.org/2000/svg">
<path d="M17.5 4L16.033 5.1C15.6868 5.35964 15.2657 5.5 14.833 5.5H11.475C11.1496 5.50013 10.8322 5.60086 10.5662 5.78839C10.3003 5.97592 10.0988 6.24109 9.98944 6.54756C9.88006 6.85404 9.8681 7.18684 9.9552 7.50038C10.0423 7.81392 10.2242 8.09286 10.476 8.299L12.476 9.935C13.2506 10.5688 13.8544 11.3862 14.2324 12.313C14.6103 13.2397 14.7505 14.2463 14.64 15.241L14.594 15.658C14.5316 16.2179 14.4103 16.7696 14.232 17.304L14 18M0.5 8.5L3.738 7.96C4.05209 7.90757 4.37415 7.9309 4.67741 8.02804C4.98067 8.12518 5.25634 8.29333 5.48151 8.51849C5.70668 8.74366 5.87482 9.01933 5.97196 9.32259C6.0691 9.62585 6.09243 9.94791 6.04 10.262L5.905 11.069C5.7883 11.7729 5.90009 12.4957 6.22401 13.1315C6.54793 13.7673 7.06694 14.2826 7.705 14.602C8.21462 14.8564 8.62208 15.2772 8.85995 15.7948C9.09781 16.3123 9.15181 16.8956 9.013 17.448L8.5 19.5" stroke="#4487FF" stroke-width="2"/>
<path d="M10 19C14.9706 19 19 14.9706 19 10C19 5.02944 14.9706 1 10 1C5.02944 1 1 5.02944 1 10C1 14.9706 5.02944 19 10 19Z" stroke="#4487FF" stroke-width="2"/>
</svg>
