<svg width="35" height="36" viewBox="0 0 35 36" fill="none" xmlns="http://www.w3.org/2000/svg">
<g clip-path="url(#clip0_3319_761)">
<path d="M24.7916 31.125V28.2083C24.7916 26.6612 24.1771 25.1775 23.0831 24.0835C21.9891 22.9896 20.5054 22.375 18.9583 22.375H7.29165C5.74455 22.375 4.26082 22.9896 3.16686 24.0835C2.07289 25.1775 1.45831 26.6612 1.45831 28.2083V31.125" stroke="#4487FF" stroke-width="3" stroke-linecap="round" stroke-linejoin="round"/>
<path d="M13.125 16.5417C16.3467 16.5417 18.9584 13.93 18.9584 10.7083C18.9584 7.48667 16.3467 4.875 13.125 4.875C9.90336 4.875 7.29169 7.48667 7.29169 10.7083C7.29169 13.93 9.90336 16.5417 13.125 16.5417Z" stroke="#4487FF" stroke-width="3" stroke-linecap="round" stroke-linejoin="round"/>
<path d="M33.5417 31.125V28.2083C33.5407 26.9158 33.1105 25.6603 32.3187 24.6388C31.5268 23.6173 30.4181 22.8877 29.1667 22.5646" stroke="#4487FF" stroke-width="3" stroke-linecap="round" stroke-linejoin="round"/>
<path d="M23.3333 5.06458C24.5881 5.38585 25.7002 6.1156 26.4945 7.13878C27.2887 8.16196 27.7198 9.42037 27.7198 10.7156C27.7198 12.0109 27.2887 13.2693 26.4945 14.2925C25.7002 15.3156 24.5881 16.0454 23.3333 16.3667" stroke="#4487FF" stroke-width="3" stroke-linecap="round" stroke-linejoin="round"/>
</g>
<defs>
<clipPath id="clip0_3319_761">
<rect width="35" height="35" fill="white" transform="translate(0 0.5)"/>
</clipPath>
</defs>
</svg>
