<svg width="31" height="32" viewBox="0 0 31 32" fill="none" xmlns="http://www.w3.org/2000/svg">
<path d="M8.85019 15.3913C8.20892 16.7333 7.91552 18.215 7.99699 19.7C8.07846 21.1851 8.53218 22.6257 9.3164 23.8895C10.1006 25.1532 11.1901 26.1994 12.4846 26.9316C13.7791 27.6639 15.2371 28.0588 16.7242 28.08C18.2113 28.1011 19.6799 27.7478 20.9947 27.0526C22.3095 26.3574 23.4283 25.3427 24.2481 24.1017C25.0679 22.8608 25.5624 21.4336 25.6861 19.9514C25.8097 18.4693 25.5586 16.9799 24.9557 15.6203" stroke="#4487FF" stroke-width="1.5" stroke-linecap="round" stroke-linejoin="round"/>
<path d="M18.6167 16.4232C18.6182 16.8163 18.5381 17.2055 18.3814 17.566C18.2246 17.9265 17.9947 18.2505 17.7061 18.5175C17.3075 18.8782 16.8101 19.1115 16.2779 19.1874C15.7457 19.2633 15.203 19.1784 14.7194 18.9434C14.3927 18.7873 14.0173 18.7673 13.6758 18.8879C13.3344 19.0085 13.0548 19.2598 12.8986 19.5866L10.2451 25.1384M24.1489 24.2168L21.189 22.8021C20.8642 22.6363 20.5095 22.5373 20.1457 22.5109C19.782 22.4845 19.4167 22.5311 19.0713 22.6482C18.7259 22.7652 18.4075 22.9502 18.1348 23.1923C17.8621 23.4345 17.6406 23.7287 17.4834 24.0578L15.6099 27.9777M9.42779 2.83307L11.2877 3.05378C11.4185 3.06933 11.5405 3.12723 11.6352 3.21863C11.7299 3.31004 11.7921 3.42993 11.8123 3.56001L12.1162 5.92619L20.0454 5.78507C20.6937 5.72873 21.3464 5.81637 21.9569 6.04172C22.5673 6.26707 23.1204 6.62456 23.5766 7.08861C24.0328 7.55266 24.3807 8.1118 24.5956 8.72602C24.8105 9.34024 24.8869 9.99436 24.8195 10.6416C24.8052 10.811 24.7552 10.9755 24.6728 11.1242C24.5905 11.273 24.4776 11.4026 24.3416 11.5047C24.2056 11.6067 24.0495 11.6789 23.8837 11.7163C23.7178 11.7538 23.5459 11.7558 23.3793 11.7221L18.561 11.0702L18.0762 11.0154L16.0076 13.3286C15.9376 13.4102 15.8483 13.4728 15.7477 13.5106C15.6472 13.5485 15.5387 13.5603 15.4324 13.5451L13.2539 13.2507C13.1425 13.2361 13.0367 13.193 12.9467 13.1258C12.8567 13.0585 12.7855 12.9693 12.7399 12.8666C12.6943 12.7639 12.6758 12.6512 12.6862 12.5394C12.6966 12.4275 12.7356 12.3202 12.7994 12.2277L14.1713 10.4266L13.8993 10.2966L9.18469 9.67455C8.87326 9.63893 8.58853 9.48168 8.39253 9.23706C8.19652 8.99244 8.10513 8.68028 8.13825 8.36857L8.81651 3.24846C8.85786 3.12121 8.94037 3.01133 9.05104 2.93612C9.16171 2.86092 9.29425 2.82466 9.42779 2.83307Z" stroke="#4487FF" stroke-width="1.5" stroke-linecap="round" stroke-linejoin="round"/>
</svg>
