<svg width="21" height="17" viewBox="0 0 21 17" fill="none" xmlns="http://www.w3.org/2000/svg">
<path d="M20.0833 8.50004C20.0833 4.88617 20.0833 3.07875 18.9601 1.95654C17.8369 0.834332 16.0305 0.833374 12.4166 0.833374H8.58325C4.96938 0.833374 3.16196 0.833374 2.03975 1.95654C0.917545 3.07971 0.916586 4.88617 0.916586 8.50004C0.916586 12.1139 0.916586 13.9213 2.03975 15.0435C3.16292 16.1657 4.96938 16.1667 8.58325 16.1667H12.4166C16.0305 16.1667 17.8379 16.1667 18.9601 15.0435C20.0823 13.9204 20.0833 12.1139 20.0833 8.50004Z" stroke="#4487FF" stroke-width="1.5"/>
<path d="M12.4166 12.3334H16.2499M8.58325 12.3334H10.0208M20.0833 6.58337H0.916586" stroke="#4487FF" stroke-width="1.5" stroke-linecap="round"/>
</svg>
