<svg width="43" height="43" viewBox="0 0 43 43" fill="none" xmlns="http://www.w3.org/2000/svg">
<rect width="43" height="43" rx="21.5" fill="white"/>
<path fill-rule="evenodd" clip-rule="evenodd" d="M21.5 12.75C20.3509 12.75 19.2131 12.9763 18.1515 13.4161C17.0899 13.8558 16.1253 14.5003 15.3128 15.3128C14.5003 16.1253 13.8558 17.0899 13.4161 18.1515C12.9763 19.2131 12.75 20.3509 12.75 21.5C12.75 22.6491 12.9763 23.7869 13.4161 24.8485C13.8558 25.9101 14.5003 26.8747 15.3128 27.6872C16.1253 28.4997 17.0899 29.1442 18.1515 29.5839C19.2131 30.0237 20.3509 30.25 21.5 30.25C23.8206 30.25 26.0462 29.3281 27.6872 27.6872C29.3281 26.0462 30.25 23.8206 30.25 21.5C30.25 19.1794 29.3281 16.9538 27.6872 15.3128C26.0462 13.6719 23.8206 12.75 21.5 12.75ZM11.25 21.5C11.25 15.84 15.84 11.25 21.5 11.25C27.16 11.25 31.75 15.84 31.75 21.5C31.75 27.16 27.16 31.75 21.5 31.75C15.84 31.75 11.25 27.16 11.25 21.5ZM21.5 18.25C21.6989 18.25 21.8897 18.329 22.0303 18.4697C22.171 18.6103 22.25 18.8011 22.25 19V20.75H24C24.1989 20.75 24.3897 20.829 24.5303 20.9697C24.671 21.1103 24.75 21.3011 24.75 21.5C24.75 21.6989 24.671 21.8897 24.5303 22.0303C24.3897 22.171 24.1989 22.25 24 22.25H22.25V24C22.25 24.1989 22.171 24.3897 22.0303 24.5303C21.8897 24.671 21.6989 24.75 21.5 24.75C21.3011 24.75 21.1103 24.671 20.9697 24.5303C20.829 24.3897 20.75 24.1989 20.75 24V22.25H19C18.8011 22.25 18.6103 22.171 18.4697 22.0303C18.329 21.8897 18.25 21.6989 18.25 21.5C18.25 21.3011 18.329 21.1103 18.4697 20.9697C18.6103 20.829 18.8011 20.75 19 20.75H20.75V19C20.75 18.8011 20.829 18.6103 20.9697 18.4697C21.1103 18.329 21.3011 18.25 21.5 18.25ZM29.47 29.47C29.6106 29.3295 29.8012 29.2507 30 29.2507C30.1988 29.2507 30.3894 29.3295 30.53 29.47L32.53 31.47C32.6037 31.5387 32.6628 31.6215 32.7038 31.7135C32.7448 31.8055 32.7668 31.9048 32.7686 32.0055C32.7704 32.1062 32.7518 32.2062 32.7141 32.2996C32.6764 32.393 32.6203 32.4778 32.549 32.549C32.4778 32.6203 32.393 32.6764 32.2996 32.7141C32.2062 32.7518 32.1062 32.7704 32.0055 32.7686C31.9048 32.7668 31.8055 32.7448 31.7135 32.7038C31.6215 32.6628 31.5387 32.6037 31.47 32.53L29.47 30.53C29.3295 30.3894 29.2507 30.1988 29.2507 30C29.2507 29.8012 29.3295 29.6106 29.47 29.47Z" fill="#4487FF"/>
</svg>
