<svg width="36" height="45" viewBox="0 0 36 45" fill="none" xmlns="http://www.w3.org/2000/svg">
<path d="M3.65625 43.2188H32.3438" stroke="#4487FF" stroke-width="3" stroke-linecap="round" stroke-linejoin="round"/>
<path d="M18 24.0938C19.6908 24.0938 21.3123 23.4221 22.5078 22.2266C23.7033 21.031 24.375 19.4095 24.375 17.7188C24.375 16.028 23.7033 14.4065 22.5078 13.2109C21.3123 12.0154 19.6908 11.3438 18 11.3438C16.3092 11.3438 14.6877 12.0154 13.4922 13.2109C12.2966 14.4065 11.625 16.028 11.625 17.7188C11.625 19.4095 12.2966 21.031 13.4922 22.2266C14.6877 23.4221 16.3092 24.0938 18 24.0938V24.0938Z" stroke="#4487FF" stroke-width="3" stroke-linecap="round" stroke-linejoin="round"/>
<path d="M33.9375 17.7188C33.9375 32.0625 18 43.2188 18 43.2188C18 43.2188 2.0625 32.0625 2.0625 17.7188C2.0625 13.4919 3.74162 9.4381 6.73049 6.44924C9.71935 3.46037 13.7731 1.78125 18 1.78125C22.2269 1.78125 26.2807 3.46037 29.2695 6.44924C32.2584 9.4381 33.9375 13.4919 33.9375 17.7188V17.7188Z" stroke="#4487FF" stroke-width="3" stroke-linecap="round" stroke-linejoin="round"/>
</svg>
